<svg width="331" height="51" viewBox="0 0 331 51" fill="none" xmlns="http://www.w3.org/2000/svg">
<path d="M16.088 50.448C13.016 50.448 10.4453 49.6053 8.376 47.92C6.30667 46.2347 5.272 43.536 5.272 39.824V23.888H0.472V17.104H5.272V7.632H15.064V17.104H24.408V23.952H15.064V38.16C15.064 40.8053 16.1093 42.128 18.2 42.128C19.5653 42.128 21.1653 41.7013 23 40.848L25.048 48.08C22.3173 49.6587 19.3307 50.448 16.088 50.448ZM65.738 50H55.882V31.248C55.882 29.2427 55.3593 27.568 54.314 26.224C53.2687 24.88 51.53 24.208 49.098 24.208C46.3247 24.5067 44.3087 25.4773 43.05 27.12C41.7913 28.7627 41.162 30.736 41.162 33.04V50H31.306V2.512H41.162V21.648C43.6367 17.424 47.6047 15.2693 53.066 15.184C56.6927 15.184 59.7113 16.272 62.122 18.448C64.5327 20.624 65.738 23.9307 65.738 28.368V50ZM79.1015 11.28C77.3522 11.28 76.0295 10.7253 75.1335 9.616C74.2375 8.50667 73.7895 7.22667 73.7895 5.776C73.7895 3.94133 74.3228 2.56533 75.3895 1.648C76.4562 0.730666 77.6935 0.271999 79.1015 0.271999C80.6802 0.271999 81.9708 0.783999 82.9735 1.808C83.9762 2.832 84.4775 4.15466 84.4775 5.776C84.4775 7.22667 84.0295 8.50667 83.1335 9.616C82.2375 10.7253 80.8935 11.28 79.1015 11.28ZM84.0295 50H74.1735V15.568H84.0295V50ZM103.342 50H93.486V15.568H103.342V21.776C105.774 17.5093 109.571 15.312 114.734 15.184V24.464L113.326 24.4C111.683 24.4 110.094 24.688 108.558 25.264C107.043 25.8187 105.795 26.768 104.814 28.112C103.833 29.456 103.342 31.2267 103.342 33.424V50ZM132.986 50.384C129.402 50.384 126.404 49.5947 123.994 48.016C121.476 46.3093 119.631 44.112 118.458 41.424C117.306 38.7147 116.73 35.792 116.73 32.656C116.73 28.7307 117.444 25.488 118.874 22.928C120.388 20.2613 122.362 18.3093 124.794 17.072C127.226 15.8133 129.871 15.184 132.73 15.184C137.594 15.184 141.306 16.9973 143.866 20.624V2.512H153.658V50H143.866V44.944C141.391 48.5707 137.764 50.384 132.986 50.384ZM135.29 42.448C137.679 42.448 139.706 41.6373 141.37 40.016C143.034 38.3947 143.866 36.0267 143.866 32.912C143.866 29.7973 143.034 27.4293 141.37 25.808C139.706 24.1867 137.679 23.376 135.29 23.376C132.346 23.376 130.18 24.272 128.794 26.064C127.407 27.856 126.671 30.1387 126.586 32.912C126.628 35.6853 127.343 37.968 128.73 39.76C130.116 41.552 132.303 42.448 135.29 42.448ZM178.334 50H168.222L162.014 15.568H172.062L175.006 40.656L188.19 15.568H198.174L178.334 50ZM209.301 50.384C206.25 50.384 203.733 49.7013 201.749 48.336C199.679 46.8853 198.133 45.0187 197.109 42.736C196.106 40.432 195.605 37.904 195.605 35.152C195.605 29.4773 197.365 24.7307 200.885 20.912C204.405 17.0933 208.767 15.184 213.973 15.184C219.434 15.184 223.167 17.4027 225.173 21.84L226.389 15.568H236.181L229.333 50H219.541L220.501 45.648C217.343 48.8053 213.61 50.384 209.301 50.384ZM213.013 42.64C216.042 42.64 218.463 41.5307 220.277 39.312C222.09 37.0933 222.997 34.5333 222.997 31.632C222.997 28.9867 222.282 26.992 220.853 25.648C219.423 24.304 217.642 23.632 215.509 23.632C212.863 23.632 210.538 24.6453 208.533 26.672C206.527 28.6987 205.525 31.3333 205.525 34.576C205.525 37.3067 206.25 39.3333 207.701 40.656C209.151 41.9787 210.922 42.64 213.013 42.64ZM252.411 50.448C248.315 50.448 245.275 49.3813 243.291 47.248C241.307 45.1147 240.315 42.4693 240.315 39.312C240.315 38.3733 240.421 37.2213 240.635 35.856L244.731 15.568H254.523L250.811 34.448C250.683 35.1307 250.619 35.7493 250.619 36.304C250.619 37.7973 251.077 39.0987 251.995 40.208C252.912 41.3173 254.437 41.872 256.571 41.872C258.213 41.872 259.643 41.5093 260.859 40.784C262.096 40.0373 263.109 39.0347 263.899 37.776C264.709 36.496 265.296 35.0453 265.659 33.424L269.243 15.568H279.099L272.315 50H262.395L263.355 45.264C260.581 48.72 256.933 50.448 252.411 50.448ZM292.339 50.448C289.864 50.448 287.731 49.712 285.939 48.24C284.147 46.768 283.251 44.4747 283.251 41.36C283.251 40.5067 283.357 39.44 283.571 38.16L290.739 2.512H300.531C295.624 26.8747 293.171 39.2693 293.171 39.696C293.171 41.0187 293.832 41.68 295.155 41.68C296.435 41.68 297.715 41.296 298.995 40.528L298.867 49.04C296.435 49.9787 294.259 50.448 292.339 50.448ZM316.269 50.448C313.624 50.448 311.384 49.7653 309.549 48.4C307.714 47.0347 306.797 44.9013 306.797 42C306.797 41.104 306.882 40.2293 307.053 39.376L310.189 23.952H305.453L306.733 17.104H311.533L313.453 7.632H323.181L321.261 17.104H330.669L329.389 23.952H319.917L316.973 38.544C316.845 39.184 316.781 39.7387 316.781 40.208C316.781 41.488 317.464 42.128 318.829 42.128C320.536 42.128 322.306 41.6587 324.141 40.72L325.357 48.208C322.157 49.7013 319.128 50.448 316.269 50.448Z" fill="white"/>
</svg>
